HIERARCHY
ROOT hip
{
  OFFSET 0 0 0
  CHANNELS 6 Xposition Yposition Zposition Zrotation Yrotation Xrotation
  JOINT abdomen
  {
    OFFSET 0 20.6881 -0.73152
    CHANNELS 3 Zrotation Xrotation Yrotation
    JOINT chest
    {
      OFFSET 0 11.7043 -0.48768
      CHANNELS 3 Zrotation Xrotation Yrotation
      JOINT neck
      {
        OFFSET 0 22.1894 -2.19456
        CHANNELS 3 Zrotation Xrotation Yrotation
        JOINT head
        {
          OFFSET -0.24384 7.07133 1.2192
          CHANNELS 3 Zrotation Xrotation Yrotation
          JOINT leftEye
          {
            OFFSET 4.14528 8.04674 8.04672
            CHANNELS 3 Zrotation Xrotation Yrotation
            End Site
            {
              OFFSET 1 0 0
            }
          }
          JOINT rightEye
          {
            OFFSET -3.6576 8.04674 8.04672
            CHANNELS 3 Zrotation Xrotation Yrotation
            End Site
            {
              OFFSET 1 0 0
            }
          }
        }
      }
      JOINT rCollar
      {
        OFFSET -2.68224 19.2634 -4.8768
        CHANNELS 3 Zrotation Xrotation Yrotation
        JOINT rShldr
        {
          OFFSET -8.77824 -1.95073 1.46304
          CHANNELS 3 Zrotation Xrotation Yrotation
          JOINT rForeArm
          {
            OFFSET -28.1742 -1.7115 0.48768
            CHANNELS 3 Zrotation Xrotation Yrotation
            JOINT rHand
            {
              OFFSET -22.5879 0.773209 7.07136
              CHANNELS 3 Zrotation Xrotation Yrotation
              JOINT rThumb1
              {
                OFFSET -1.2192 -0.487915 3.41376
                CHANNELS 3 Zrotation Xrotation Yrotation
                JOINT rThumb2
                {
                  OFFSET -3.37035 -0.52449 3.41376
                  CHANNELS 3 Zrotation Xrotation Yrotation
                  End Site
                  {
                    OFFSET -1.78271 -1.18214 1.43049
                  }
                }
              }
              JOINT rIndex1
              {
                OFFSET -7.75947 0.938293 5.60832
                CHANNELS 3 Zrotation Xrotation Yrotation
                JOINT rIndex2
                {
                  OFFSET -2.54057 -0.884171 1.56538
                  CHANNELS 3 Zrotation Xrotation Yrotation
                  End Site
                  {
                    OFFSET -1.62519 -0.234802 1.16502
                  }
                }
              }
              JOINT rMid1
              {
                OFFSET -8.24714 1.18213 3.41376
                CHANNELS 3 Zrotation Xrotation Yrotation
                JOINT rMid2
                {
                  OFFSET -3.10165 -0.590103 1.0647
                  CHANNELS 3 Zrotation Xrotation Yrotation
                  End Site
                  {
                    OFFSET -2.48547 -0.328903 0.83742
                  }
                }
              }
              JOINT rRing1
              {
                OFFSET -8.82822 0.546677 1.51678
                CHANNELS 3 Zrotation Xrotation Yrotation
                JOINT rRing2
                {
                  OFFSET -2.60934 -0.819778 -0.0198488
                  CHANNELS 3 Zrotation Xrotation Yrotation
                  End Site
                  {
                    OFFSET -2.33842 -0.294052 0.168128
                  }
                }
              }
              JOINT rPinky1
              {
                OFFSET -8.27202 -0.0477905 -0.4584
                CHANNELS 3 Zrotation Xrotation Yrotation
                JOINT rPinky2
                {
                  OFFSET -1.82734 -0.647385 -0.700984
                  CHANNELS 3 Zrotation Xrotation Yrotation
                  End Site
                  {
                    OFFSET -1.69225 -0.51767 -0.607171
                  }
                }
              }
            }
          }
        }
      }
      JOINT lCollar
      {
        OFFSET 2.68224 19.2634 -4.8768
        CHANNELS 3 Zrotation Xrotation Yrotation
        JOINT lShldr
        {
          OFFSET 8.77824 -1.95073 1.46304
          CHANNELS 3 Zrotation Xrotation Yrotation
          JOINT lForeArm
          {
            OFFSET 28.1742 -1.7115 0.48768
            CHANNELS 3 Zrotation Xrotation Yrotation
            JOINT lHand
            {
              OFFSET 22.5879 0.773209 7.07136
              CHANNELS 3 Zrotation Xrotation Yrotation
              JOINT lThumb1
              {
                OFFSET 1.2192 -0.487915 3.41376
                CHANNELS 3 Zrotation Xrotation Yrotation
                JOINT lThumb2
                {
                  OFFSET 3.37035 -0.52449 3.41376
                  CHANNELS 3 Zrotation Xrotation Yrotation
                  End Site
                  {
                    OFFSET 1.78271 -1.18214 1.43049
                  }
                }
              }
              JOINT lIndex1
              {
                OFFSET 7.75947 0.938293 5.60832
                CHANNELS 3 Zrotation Xrotation Yrotation
                JOINT lIndex2
                {
                  OFFSET 2.54057 -0.884171 1.56538
                  CHANNELS 3 Zrotation Xrotation Yrotation
                  End Site
                  {
                    OFFSET 1.62519 -0.234802 1.16502
                  }
                }
              }
              JOINT lMid1
              {
                OFFSET 8.24714 1.18213 3.41376
                CHANNELS 3 Zrotation Xrotation Yrotation
                JOINT lMid2
                {
                  OFFSET 3.10165 -0.590103 1.0647
                  CHANNELS 3 Zrotation Xrotation Yrotation
                  End Site
                  {
                    OFFSET 2.48547 -0.328903 0.83742
                  }
                }
              }
              JOINT lRing1
              {
                OFFSET 8.82822 0.546677 1.51678
                CHANNELS 3 Zrotation Xrotation Yrotation
                JOINT lRing2
                {
                  OFFSET 2.60934 -0.819778 -0.0198488
                  CHANNELS 3 Zrotation Xrotation Yrotation
                  End Site
                  {
                    OFFSET 2.33842 -0.294052 0.168128
                  }
                }
              }
              JOINT lPinky1
              {
                OFFSET 8.27202 -0.0477905 -0.4584
                CHANNELS 3 Zrotation Xrotation Yrotation
                JOINT lPinky2
                {
                  OFFSET 1.82734 -0.647385 -0.700984
                  CHANNELS 3 Zrotation Xrotation Yrotation
                  End Site
                  {
                    OFFSET 1.69225 -0.51767 -0.607171
                  }
                }
              }
            }
          }
        }
      }
    }
  }
  JOINT rButtock
  {
    OFFSET -8.77824 4.35084 1.2192
    CHANNELS 3 Zrotation Xrotation Yrotation
    JOINT rThigh
    {
      OFFSET 0 -1.70687 -2.19456
      CHANNELS 3 Zrotation Xrotation Yrotation
      JOINT rShin
      {
        OFFSET 0 -36.8199 0.73152
        CHANNELS 3 Zrotation Xrotation Yrotation
        JOINT rFoot
        {
          OFFSET 0.73152 -45.1104 -5.12064
          CHANNELS 3 Zrotation Xrotation Yrotation
          End Site
          {
            OFFSET -1.1221 -3.69964 12.103
          }
        }
      }
    }
  }
  JOINT lButtock
  {
    OFFSET 8.77824 4.35084 1.2192
    CHANNELS 3 Zrotation Xrotation Yrotation
    JOINT lThigh
    {
      OFFSET 0 -1.70687 -2.19456
      CHANNELS 3 Zrotation Xrotation Yrotation
      JOINT lShin
      {
        OFFSET 0 -36.8199 0.73152
        CHANNELS 3 Zrotation Xrotation Yrotation
        JOINT lFoot
        {
          OFFSET -0.73152 -45.1104 -5.12064
          CHANNELS 3 Zrotation Xrotation Yrotation
          End Site
          {
            OFFSET 1.1221 -3.69964 12.103
          }
        }
      }
    }
  }
}
MOTION
Frames:	4
Frame Time:	0.03333
-0.06305761635303497 62.081605195999146 0.16669989563524723 -4.762200355529785 0.9642534852027893 5.430450439453125 -2.250685214996338 14.759451866149902 3.771040201187134 2.6012020111083984 -9.66441535949707 1.1022584438323975 -5.061622619628906 14.97429084777832 -3.5097603797912598 8.793292999267578 -24.132164001464844 -4.980521202087402 0.002391258254647255 -0.04005545377731323 0.05295562371611595 -0.000819606299046427 0.01532528642565012 -0.042181458324193954 0.03256737068295479 -0.05070978403091431 -0.06633434444665909 44.66739273071289 37.388614654541016 19.327425003051758 -27.55046272277832 -28.34765625 64.6414566040039 -0.17019690573215485 -11.999979019165039 -1.6733723878860474 -0.02386385388672352 0.025734467431902885 -0.07312214374542236 -0.015470011159777641 -0.03396429494023323 0.08773443102836609 0.08982115983963013 -0.03561171516776085 0.043060265481472015 7.693446159362793 5.5153117179870605 0.3819926083087921 -0.0050201634876430035 0.02729794941842556 0.10586656630039215 2.919842481613159 0.9468928575515747 0.12998349964618683 -0.0005244934582151473 -0.03675178810954094 -0.07565926760435104 10.270237922668457 0.7329097986221313 0.005928044207394123 0.01296234130859375 -0.04012661799788475 0.00566236674785614 2.2175989151000977 -0.7322986125946045 -0.2785191833972931 0.045293133705854416 -0.024366583675146103 0.0239755529910326 -52.18892288208008 39.22797775268555 -29.792726516723633 26.935916900634766 -26.06466293334961 -61.096168518066406 0.1855304092168808 -13.370628356933594 1.9004323482513428 0.015922261402010918 0.046865709125995636 0.030025193467736244 -0.015378495678305626 -0.07721084356307983 0.04403515160083771 0.032956406474113464 0.019216258078813553 -0.06828614324331284 -7.7501220703125 5.474855422973633 -0.4263882040977478 0.01706601493060589 -0.012713133357465267 -0.05331174284219742 -2.922166585922241 0.9180420637130737 -0.11499199271202087 0.02114231139421463 -0.050073329359292984 0.002332401694729924 -10.278075218200684 0.7369135022163391 -0.002700995421037078 0.003830907167866826 0.05319460853934288 -0.053823720663785934 -2.210993766784668 -0.7537819147109985 0.23893049359321594 -0.06300611793994904 -0.043097320944070816 0.0009056439157575369 -24.85417938232422 -40.15357971191406 -20.388587951660156 -1.5051440000534058 65.27893829345703 2.5276947021484375 -3.712061643600464 -11.033626556396484 -10.093480110168457 -0.012455818243324757 -0.043745145201683044 -0.012109437957406044 30.627939224243164 -40.21370315551758 23.225444793701172 1.4998124837875366 66.04207611083984 -2.687389612197876 4.103341579437256 -10.781245231628418 13.204937934875488
-0.12455955147743225 61.93127632141113 0.4187272861599922 -4.879223823547363 0.47498583793640137 5.497950553894043 -2.3137378692626953 14.597944259643555 3.804297685623169 2.62962007522583 -9.630579948425293 1.146257758140564 -5.065220832824707 14.97582721710205 -3.374100685119629 8.81128978729248 -24.003171920776367 -4.698446750640869 0.055859386920928955 -0.06842456012964249 0.0675179734826088 -0.00288554560393095 0.044649992138147354 -0.07258480042219162 0.03928608447313309 -0.07931702584028244 -0.08417191356420517 44.47644805908203 37.59510040283203 19.323856353759766 -27.529205322265625 -28.421743392944336 64.82787322998047 -0.2007540613412857 -11.723871231079102 -1.6244908571243286 -0.0941089615225792 0.029069887474179268 -0.07224621623754501 -0.038208991289138794 -0.06251661479473114 0.11123976856470108 0.15859627723693848 -0.056492943316698074 0.07039109617471695 7.677860260009766 5.574250221252441 0.3501747250556946 -0.040663886815309525 0.034021515399217606 0.18029965460300446 2.9633548259735107 0.9377272725105286 0.1237114891409874 -0.01708213798701763 -0.08547285944223404 -0.13401639461517334 10.257122039794922 0.7319939732551575 0.008411754854023457 0.07922729849815369 -0.036969706416130066 -0.0014140018029138446 2.2423794269561768 -0.7534422874450684 -0.3095192313194275 0.050695743411779404 -0.043047476559877396 0.05727265402674675 -52.13373565673828 38.7686882019043 -29.81615447998047 26.969154357910156 -26.095996856689453 -61.08231735229492 0.19691497087478638 -13.347614288330078 1.900425910949707 -0.006355084478855133 0.08957000076770782 0.04388326033949852 -0.0006467702914960682 -0.16531892120838165 0.06173859164118767 0.0385674349963665 0.12337498366832733 -0.1200261190533638 -7.727477550506592 5.455007553100586 -0.42006173729896545 0.042863715440034866 -0.030263733118772507 -0.08740022778511047 -2.950298547744751 0.8723667860031128 -0.12839242815971375 0.00896613858640194 -0.14498162269592285 0.02606147713959217 -10.311934471130371 0.7121164798736572 0.03728495165705681 0.04641326889395714 0.10456134378910065 -0.04483054578304291 -2.1226754188537598 -0.762835681438446 0.2749767303466797 -0.07094334810972214 -0.0950704887509346 0.019324490800499916 -24.839736938476562 -40.13723373413086 -20.268024444580078 -1.7098077535629272 65.24929809570312 2.571042060852051 -3.700373888015747 -11.146601676940918 -10.169412612915039 0.019215745851397514 -0.07520944625139236 -0.011525389738380909 30.76276397705078 -40.55790710449219 23.411914825439453 1.391366958618164 66.19690704345703 -2.6730990409851074 4.171273708343506 -10.84988021850586 13.157204627990723
-0.328720360994339 58.17110538482666 1.1927413288503885 10.594436645507812 32.70016098022461 2.056577444076538 -14.502930641174316 9.745060920715332 2.747403860092163 4.733376502990723 -9.133369445800781 0.4982016682624817 -8.611135482788086 18.115808486938477 -12.413151741027832 12.278006553649902 -25.091445922851562 -22.73074722290039 0.08809131383895874 0.043605465441942215 -0.09468771517276764 0.0661882758140564 0.12175023555755615 0.00900356750935316 0.19945956766605377 -0.2207985371351242 -0.028736822307109833 34.56218338012695 12.211610794067383 36.11957550048828 -17.079877853393555 -9.707670211791992 31.903182983398438 -0.7613605260848999 22.706838607788086 4.103038787841797 0.08343670517206192 0.16187931597232819 -0.07007378339767456 -0.013278316706418991 -0.011834380216896534 0.18045277893543243 0.280094712972641 -0.11455310136079788 0.07362727075815201 7.883164882659912 5.711501598358154 0.2977239787578583 -0.08857669681310654 0.11260310560464859 0.30868959426879883 2.881702423095703 0.9032652378082275 0.15438519418239594 -0.00661500496789813 -0.01990623213350773 -0.018244903534650803 10.145113945007324 0.8527339696884155 0.18651168048381805 0.07715830206871033 0.011842289939522743 -0.055698901414871216 2.203037738800049 -0.6405811309814453 -0.26934391260147095 -0.15244914591312408 -0.09315197914838791 0.13064514100551605 -105.67494201660156 45.833011627197266 44.3896598815918 28.494905471801758 -38.55223846435547 -81.836669921875 2.361130475997925 -40.1794548034668 6.457531452178955 0.014755792915821075 0.2788158655166626 0.0014302203198894858 -0.13778308033943176 -0.18492506444454193 -0.07786282151937485 -0.07562173902988434 0.16858536005020142 -0.19216597080230713 -7.600277423858643 5.6358723640441895 -0.3970167934894562 -0.20304518938064575 -0.049585308879613876 0.04690210521221161 -2.8622934818267822 0.7730177640914917 -0.2310551255941391 -0.06794975697994232 -0.21339650452136993 0.05960080027580261 -10.363141059875488 0.4950501024723053 0.0650472491979599 0.2052823007106781 0.11089158058166504 0.030457906424999237 -1.9620870351791382 -0.6094015836715698 0.2950863242149353 -0.3137405216693878 -0.4010435938835144 -0.0028566017281264067 -45.644046783447266 -52.81784439086914 -34.03513717651367 -1.6249691247940063 56.80315399169922 1.5774824619293213 2.0901787281036377 4.405257701873779 11.904511451721191 -0.020373767241835594 -0.22356174886226654 -0.017142988741397858 11.26620101928711 0.7672815322875977 6.083613395690918 0.10395567119121552 46.17526626586914 -3.171602725982666 12.79426097869873 -20.557846069335938 35.322486877441406
-0.6250768899917603 55.73245882987976 1.3025479391217232 11.783587455749512 36.71355438232422 0.21133945882320404 -14.790822982788086 11.892723083496094 3.9224894046783447 5.356420516967773 -8.977636337280273 0.8896019458770752 -8.510238647460938 17.774822235107422 -12.016363143920898 11.414257049560547 -27.09805679321289 -22.004016876220703 -0.07471122592687607 0.04272474721074104 -0.0938476175069809 0.12665872275829315 0.11510898172855377 0.22808603942394257 -0.034494344145059586 0.10740721225738525 0.2855536639690399 33.708213806152344 16.257665634155273 35.697021484375 -14.778564453125 -8.123745918273926 27.60963249206543 -0.16826792061328888 18.134231567382812 3.5155441761016846 0.48407411575317383 0.1571294516324997 0.07741399109363556 -0.04597277566790581 0.040610481053590775 0.0333109125494957 -0.023943008854985237 -0.3098793029785156 0.23688428103923798 7.818905353546143 5.564554214477539 0.32580047845840454 -0.05137576907873154 0.22247326374053955 0.3984876573085785 2.7180569171905518 0.9438766837120056 0.1482616364955902 -0.1109209954738617 0.034221138805150986 0.06575627624988556 10.127083778381348 0.722154438495636 0.07648701220750809 -0.19312049448490143 -0.028716158121824265 -0.17054902017116547 2.3222851753234863 -0.43138933181762695 -0.48292210698127747 0.19331328570842743 -0.0539323166012764 -0.050888869911432266 -105.70726013183594 48.77801513671875 45.16714096069336 28.0836181640625 -40.305824279785156 -84.26882934570312 2.520099401473999 -37.76043701171875 6.394533157348633 -0.004573548212647438 0.3677982687950134 0.001905870740301907 -0.23418545722961426 0.027268314734101295 0.17856751382350922 -0.23461340367794037 0.017535418272018433 -0.2293052077293396 -7.558967590332031 5.849330425262451 -0.3151629567146301 -0.36619144678115845 -0.06755592674016953 0.028810769319534302 -2.8780083656311035 0.8001577258110046 -0.26307016611099243 -0.0847899541258812 0.019178805872797966 -0.10504933446645737 -10.46108627319336 0.6949370503425598 0.17466652393341064 0.02813608944416046 0.4089981019496918 0.07840634882450104 -2.4460482597351074 -0.5921680927276611 0.19054962694644928 -0.3165692389011383 -0.23213940858840942 -0.003884629113599658 -48.43204116821289 -53.54969787597656 -37.09139633178711 -1.129429817199707 57.15235137939453 0.9119884967803955 1.243003487586975 5.467278003692627 15.96651554107666 -0.06874657422304153 -0.09025198221206665 0.1184627115726471 11.507376670837402 2.094325304031372 3.6290056705474854 0.32567930221557617 45.99261474609375 -3.043463706970215 11.894437789916992 -18.99056053161621 36.02845001220703
